<svg width="313" height="38" viewBox="0 0 313 38" fill="none" xmlns="http://www.w3.org/2000/svg">
<path d="M4.83594 1.24609C4.74219 2.76953 4.6543 4.28125 4.57227 5.78125C4.49023 7.28125 4.41992 8.79297 4.36133 10.3164C4.77148 9.54297 5.22852 8.94531 5.73242 8.52344C6.23633 8.08984 6.71094 7.77344 7.15625 7.57422C7.67188 7.33984 8.19336 7.19922 8.7207 7.15234C9.56445 7.15234 10.2852 7.35742 10.8828 7.76758C11.4805 8.17773 11.9727 8.76367 12.3594 9.52539C12.7461 10.2871 13.0273 11.207 13.2031 12.2852C13.3789 13.3516 13.4668 14.5469 13.4668 15.8711C13.4668 18.0859 13.3906 20.2305 13.2383 22.3047C13.0977 24.3672 12.793 26.3828 12.3242 28.3516L8.21094 27.8594C8.48047 26.4648 8.68555 25.1641 8.82617 23.957C8.97852 22.75 9.08984 21.6953 9.16016 20.793C9.24219 19.7383 9.28906 18.7715 9.30078 17.8926C9.30078 16.7793 9.2832 15.8125 9.24805 14.9922C9.22461 14.1602 9.14258 13.4746 9.00195 12.9355C8.87305 12.3848 8.66797 11.9746 8.38672 11.7051C8.10547 11.4355 7.71289 11.3008 7.20898 11.3008C6.82227 11.3594 6.44141 11.5938 6.06641 12.0039C5.90234 12.1797 5.73828 12.4023 5.57422 12.6719C5.41016 12.9414 5.24023 13.2754 5.06445 13.6738C4.90039 14.0605 4.74219 14.5176 4.58984 15.0449C4.4375 15.5723 4.30273 16.1816 4.18555 16.873C4.15039 18.0684 4.12695 19.2578 4.11523 20.4414C4.11523 21.625 4.11523 22.8027 4.11523 23.9746C4.11523 24.7129 4.11523 25.457 4.11523 26.207C4.11523 26.957 4.12695 27.7012 4.15039 28.4395L0.160156 28.3516C0.289062 26.207 0.382812 24.0625 0.441406 21.918C0.511719 19.7734 0.546875 17.6113 0.546875 15.4316C0.546875 13.041 0.505859 10.668 0.423828 8.3125C0.341797 5.94531 0.224609 3.56641 0.0722656 1.17578L4.83594 1.24609Z" fill="black"/>
<path d="M22.0625 1.28125C21.9688 2.48828 21.8926 3.67773 21.834 4.84961C21.7754 6.00977 21.7168 7.17578 21.6582 8.34766C22.1738 8.32422 22.6836 8.30664 23.1875 8.29492C23.6914 8.27148 24.207 8.24219 24.7344 8.20703L24.8047 12.707C24.2422 12.6133 23.6855 12.5371 23.1348 12.4785C22.584 12.4199 22.0449 12.373 21.5176 12.3379C21.4824 13.334 21.459 14.3184 21.4473 15.291C21.4473 16.2637 21.4473 17.248 21.4473 18.2441C21.4473 20.0254 21.4648 21.7949 21.5 23.5527C21.5469 25.3105 21.6172 27.0801 21.7109 28.8613L17.123 28.791C17.2754 26.0371 17.3984 23.2891 17.4922 20.5469C17.5977 17.793 17.668 15.0215 17.7031 12.2324C17.2109 12.2559 16.7188 12.2852 16.2266 12.3203C15.7344 12.3438 15.2305 12.373 14.7148 12.4082L14.8555 8.24219C15.3359 8.27734 15.8105 8.30664 16.2793 8.33008C16.7598 8.3418 17.2344 8.35938 17.7031 8.38281C17.7031 7.21094 17.6914 6.04492 17.668 4.88477C17.6445 3.71289 17.6211 2.53516 17.5977 1.35156L22.0625 1.28125Z" fill="black"/>
<path d="M32.5039 1.28125C32.4102 2.48828 32.334 3.67773 32.2754 4.84961C32.2168 6.00977 32.1582 7.17578 32.0996 8.34766C32.6152 8.32422 33.125 8.30664 33.6289 8.29492C34.1328 8.27148 34.6484 8.24219 35.1758 8.20703L35.2461 12.707C34.6836 12.6133 34.127 12.5371 33.5762 12.4785C33.0254 12.4199 32.4863 12.373 31.959 12.3379C31.9238 13.334 31.9004 14.3184 31.8887 15.291C31.8887 16.2637 31.8887 17.248 31.8887 18.2441C31.8887 20.0254 31.9062 21.7949 31.9414 23.5527C31.9883 25.3105 32.0586 27.0801 32.1523 28.8613L27.5645 28.791C27.7168 26.0371 27.8398 23.2891 27.9336 20.5469C28.0391 17.793 28.1094 15.0215 28.1445 12.2324C27.6523 12.2559 27.1602 12.2852 26.668 12.3203C26.1758 12.3438 25.6719 12.373 25.1562 12.4082L25.2969 8.24219C25.7773 8.27734 26.252 8.30664 26.7207 8.33008C27.2012 8.3418 27.6758 8.35938 28.1445 8.38281C28.1445 7.21094 28.1328 6.04492 28.1094 4.88477C28.0859 3.71289 28.0625 2.53516 28.0391 1.35156L32.5039 1.28125Z" fill="black"/>
<path d="M36.1777 35.0488C36.3184 33.3613 36.4355 31.7031 36.5293 30.0742C36.6348 28.4453 36.7227 26.834 36.793 25.2402C36.8633 23.6348 36.916 22.0352 36.9512 20.4414C36.9863 18.8477 37.0039 17.2363 37.0039 15.6074C37.0039 13.4395 36.9688 11.2012 36.8984 8.89258L40.8887 8.83984L40.7832 10.791C41.2871 9.80664 41.873 9.03906 42.541 8.48828C43.209 7.9375 43.9062 7.66211 44.6328 7.66211C45.5117 7.66211 46.291 7.85547 46.9707 8.24219C47.6621 8.61719 48.2422 9.21484 48.7109 10.0352C49.1797 10.8555 49.5371 11.9043 49.7832 13.1816C50.0293 14.4473 50.1523 15.9766 50.1523 17.7695C50.1523 19.8203 49.9824 21.5488 49.6426 22.9551C49.3027 24.3496 48.8516 25.4805 48.2891 26.3477C47.7266 27.2031 47.0879 27.8184 46.373 28.1934C45.6699 28.5684 44.9492 28.7559 44.2109 28.7559C43.8242 28.7207 43.4258 28.627 43.0156 28.4746C42.6641 28.3457 42.2715 28.1406 41.8379 27.8594C41.416 27.5664 40.9941 27.1562 40.5723 26.6289C40.5957 28.0234 40.6309 29.4238 40.6777 30.8301C40.7246 32.2363 40.7949 33.6719 40.8887 35.1367L36.1777 35.0488ZM40.5371 23.0957C40.6543 23.3184 40.7949 23.5586 40.959 23.8164C41.123 24.0625 41.2988 24.2969 41.4863 24.5195C41.6855 24.7305 41.8965 24.9062 42.1191 25.0469C42.3418 25.1875 42.582 25.2578 42.8398 25.2578C43.1914 25.2578 43.5371 25.1172 43.877 24.8359C44.2285 24.543 44.5391 24.0918 44.8086 23.4824C45.0781 22.8613 45.2949 22.0645 45.459 21.0918C45.6348 20.1074 45.7227 18.9297 45.7227 17.5586C45.7227 16.4336 45.6641 15.4668 45.5469 14.6582C45.4414 13.8379 45.2949 13.1641 45.1074 12.6367C44.9199 12.0977 44.6973 11.7051 44.4395 11.459C44.1816 11.2012 43.9121 11.0723 43.6309 11.0723C43.3965 11.0723 43.168 11.1602 42.9453 11.3359C42.7227 11.5 42.5059 11.7168 42.2949 11.9863C42.0957 12.2441 41.9082 12.543 41.7324 12.8828C41.5566 13.2109 41.3926 13.5391 41.2402 13.8672C41.0996 14.1836 40.9766 14.4824 40.8711 14.7637C40.7656 15.0449 40.6895 15.2676 40.6426 15.4316C40.6074 16.6855 40.5781 17.916 40.5547 19.123C40.543 20.3301 40.5371 21.5488 40.5371 22.7793V23.0957Z" fill="black"/>
<path d="M64.3906 12.1621C64.3906 12.7012 64.291 13.1582 64.0918 13.5332C63.8926 13.9082 63.6523 14.2129 63.3711 14.4473C63.0898 14.6816 62.7969 14.8516 62.4922 14.957C62.1875 15.0625 61.9297 15.1152 61.7188 15.1152C61.5078 15.1152 61.2559 15.0801 60.9629 15.0098C60.6699 14.9277 60.3887 14.7871 60.1191 14.5879C59.8613 14.3887 59.6387 14.125 59.4512 13.7969C59.2637 13.457 59.1699 13.0293 59.1699 12.5137C59.1816 12.2324 59.2344 11.957 59.3281 11.6875C59.4102 11.4531 59.5332 11.2129 59.6973 10.9668C59.873 10.709 60.1191 10.4805 60.4355 10.2812C60.2246 9.97656 60.0137 9.74219 59.8027 9.57812C59.5918 9.41406 59.4043 9.29102 59.2402 9.20898C59.041 9.11523 58.8594 9.05664 58.6953 9.0332C58.332 9.0332 58.0039 9.10938 57.7109 9.26172C57.418 9.40234 57.166 9.5957 56.9551 9.8418C56.7559 10.0762 56.5977 10.3516 56.4805 10.668C56.375 10.9844 56.3223 11.3125 56.3223 11.6523C56.3223 12.0859 56.3516 12.4785 56.4102 12.8301C56.4688 13.1816 56.6035 13.5391 56.8145 13.9023C57.0254 14.2656 57.3418 14.6582 57.7637 15.0801C58.1855 15.502 58.7598 15.9941 59.4863 16.5566C60.2129 17.1191 60.8457 17.6699 61.3848 18.209C61.9238 18.7363 62.3691 19.2578 62.7207 19.7734C63.0723 20.2891 63.3359 20.8105 63.5117 21.3379C63.6875 21.8535 63.7754 22.3926 63.7754 22.9551C63.7754 23.3301 63.7344 23.7402 63.6523 24.1855C63.582 24.6191 63.4531 25.0645 63.2656 25.5215C63.0898 25.9668 62.8496 26.4004 62.5449 26.8223C62.252 27.2324 61.8828 27.6016 61.4375 27.9297C61.0039 28.2578 60.4883 28.5156 59.8906 28.7031C59.3047 28.9023 58.6309 29.002 57.8691 29.002C56.7207 29.002 55.7422 28.832 54.9336 28.4922C54.125 28.1523 53.457 27.7422 52.9297 27.2617C52.4141 26.7695 52.0332 26.2539 51.7871 25.7148C51.5527 25.1758 51.4355 24.7012 51.4355 24.291C51.4355 23.8574 51.4883 23.4531 51.5938 23.0781C51.6992 22.7031 51.8633 22.375 52.0859 22.0938C52.3203 21.8125 52.6133 21.5957 52.9648 21.4434C53.3281 21.2793 53.7617 21.1973 54.2656 21.1973C54.6875 21.1973 55.0684 21.2617 55.4082 21.3906C55.7598 21.5195 56.0586 21.7129 56.3047 21.9707C56.5625 22.2168 56.7617 22.5215 56.9023 22.8848C57.043 23.248 57.1133 23.6582 57.1133 24.1152C57.1016 24.3145 57.0605 24.5195 56.9902 24.7305C56.9316 24.9062 56.832 25.0996 56.6914 25.3105C56.5508 25.5215 56.3574 25.7207 56.1113 25.9082C56.2754 26.0371 56.4336 26.1367 56.5859 26.207C56.75 26.2656 56.8965 26.3066 57.0254 26.3301C57.166 26.3652 57.3066 26.3828 57.4473 26.3828C57.5996 26.3828 57.7754 26.3418 57.9746 26.2598C58.1855 26.166 58.3848 26.0254 58.5723 25.8379C58.7598 25.6504 58.918 25.4219 59.0469 25.1523C59.1758 24.8828 59.2402 24.5605 59.2402 24.1855C59.2402 23.8105 59.2051 23.4707 59.1348 23.166C59.0762 22.8496 58.9414 22.5273 58.7305 22.1992C58.5312 21.8594 58.2383 21.4902 57.8516 21.0918C57.4648 20.6934 56.9551 20.2129 56.3223 19.6504C55.6895 19.0879 55.127 18.543 54.6348 18.0156C54.1426 17.4766 53.7266 16.9199 53.3867 16.3457C53.0586 15.7715 52.8066 15.168 52.6309 14.5352C52.4551 13.9023 52.3672 13.2051 52.3672 12.4434C52.3672 11.6934 52.5137 10.9668 52.8066 10.2637C53.1113 9.56055 53.5391 8.93945 54.0898 8.40039C54.6406 7.84961 55.3086 7.41602 56.0938 7.09961C56.8789 6.77148 57.7578 6.60742 58.7305 6.60742C59.7148 6.60742 60.5645 6.75977 61.2793 7.06445C61.9941 7.36914 62.5801 7.7793 63.0371 8.29492C63.4941 8.79883 63.834 9.38477 64.0566 10.0527C64.2793 10.7207 64.3906 11.4238 64.3906 12.1621Z" fill="black"/>
<path d="M71.0703 12.5488C71.0703 12.8652 71.0059 13.1641 70.877 13.4453C70.7598 13.7266 70.5957 13.9727 70.3848 14.1836C70.1855 14.3828 69.9453 14.5469 69.6641 14.6758C69.3828 14.793 69.084 14.8516 68.7676 14.8516C68.4395 14.8516 68.1348 14.793 67.8535 14.6758C67.5723 14.5469 67.3262 14.3828 67.1152 14.1836C66.9043 13.9727 66.7344 13.7266 66.6055 13.4453C66.4883 13.1641 66.4297 12.8652 66.4297 12.5488C66.4297 12.2324 66.4883 11.9336 66.6055 11.6523C66.7344 11.3594 66.9043 11.1074 67.1152 10.8965C67.3262 10.6855 67.5723 10.5215 67.8535 10.4043C68.1348 10.2754 68.4395 10.2109 68.7676 10.2109C69.084 10.2109 69.3828 10.2754 69.6641 10.4043C69.9453 10.5215 70.1855 10.6855 70.3848 10.8965C70.5957 11.1074 70.7598 11.3594 70.877 11.6523C71.0059 11.9336 71.0703 12.2324 71.0703 12.5488ZM71.0703 26.3477C71.0703 26.6641 71.0059 26.9629 70.877 27.2441C70.7598 27.5137 70.5957 27.7539 70.3848 27.9648C70.1855 28.1758 69.9453 28.3398 69.6641 28.457C69.3828 28.5859 69.084 28.6504 68.7676 28.6504C68.4395 28.6504 68.1348 28.5859 67.8535 28.457C67.5723 28.3398 67.3262 28.1758 67.1152 27.9648C66.9043 27.7539 66.7344 27.5137 66.6055 27.2441C66.4883 26.9629 66.4297 26.6641 66.4297 26.3477C66.4297 26.0195 66.4883 25.7148 66.6055 25.4336C66.7344 25.1523 66.9043 24.9062 67.1152 24.6953C67.3262 24.4844 67.5723 24.3203 67.8535 24.2031C68.1348 24.0742 68.4395 24.0098 68.7676 24.0098C69.084 24.0098 69.3828 24.0742 69.6641 24.2031C69.9453 24.3203 70.1855 24.4844 70.3848 24.6953C70.5957 24.9062 70.7598 25.1523 70.877 25.4336C71.0059 25.7148 71.0703 26.0195 71.0703 26.3477Z" fill="black"/>
<path d="M87.7695 2.72266C87.4062 3.47266 86.9727 4.42188 86.4688 5.57031C85.9766 6.71875 85.4375 8.00195 84.8516 9.41992C84.2773 10.8262 83.6797 12.332 83.0586 13.9375C82.4375 15.543 81.8281 17.166 81.2305 18.8066C80.6445 20.4473 80.0762 22.0762 79.5254 23.6934C78.9863 25.2988 78.5059 26.8164 78.084 28.2461C77.5801 28.1758 77.0645 28.1113 76.5371 28.0527C76.0918 28.0059 75.5996 27.9648 75.0605 27.9297C74.5215 27.8828 74.0059 27.8594 73.5137 27.8594H73.0918C73.748 26.6523 74.4043 25.3281 75.0605 23.8867C75.7285 22.4453 76.3789 20.957 77.0117 19.4219C77.6445 17.8867 78.2539 16.334 78.8398 14.7637C79.4258 13.1934 79.9707 11.6641 80.4746 10.1758C80.9785 8.6875 81.4297 7.28125 81.8281 5.95703C82.2383 4.62109 82.5781 3.42578 82.8477 2.37109L87.7695 2.72266Z" fill="black"/>
<path d="M101.797 2.72266C101.434 3.47266 101 4.42188 100.496 5.57031C100.004 6.71875 99.4648 8.00195 98.8789 9.41992C98.3047 10.8262 97.707 12.332 97.0859 13.9375C96.4648 15.543 95.8555 17.166 95.2578 18.8066C94.6719 20.4473 94.1035 22.0762 93.5527 23.6934C93.0137 25.2988 92.5332 26.8164 92.1113 28.2461C91.6074 28.1758 91.0918 28.1113 90.5645 28.0527C90.1191 28.0059 89.627 27.9648 89.0879 27.9297C88.5488 27.8828 88.0332 27.8594 87.541 27.8594H87.1191C87.7754 26.6523 88.4316 25.3281 89.0879 23.8867C89.7559 22.4453 90.4062 20.957 91.0391 19.4219C91.6719 17.8867 92.2812 16.334 92.8672 14.7637C93.4531 13.1934 93.998 11.6641 94.502 10.1758C95.0059 8.6875 95.457 7.28125 95.8555 5.95703C96.2656 4.62109 96.6055 3.42578 96.875 2.37109L101.797 2.72266Z" fill="black"/>
<path d="M116.475 8.3125C116.416 9.00391 116.357 9.71875 116.299 10.457C116.252 11.1836 116.205 11.916 116.158 12.6543C116.111 13.3809 116.07 14.1016 116.035 14.8164C116.012 15.5195 115.988 16.1875 115.965 16.8203C115.906 18.3203 115.865 19.791 115.842 21.2324C115.771 22.6152 115.73 23.9863 115.719 25.3457C115.719 26.6934 115.678 27.9766 115.596 29.1953C115.514 30.4258 115.355 31.5625 115.121 32.6055C114.898 33.6602 114.529 34.5684 114.014 35.3301C113.498 36.1035 112.801 36.707 111.922 37.1406C111.055 37.5742 109.936 37.791 108.564 37.791C107.521 37.791 106.689 37.6387 106.068 37.334C105.459 37.041 104.99 36.6777 104.662 36.2441C104.346 35.8223 104.135 35.3711 104.029 34.8906C103.936 34.4102 103.889 33.9824 103.889 33.6074C103.889 33.209 103.947 32.834 104.064 32.4824C104.193 32.1426 104.369 31.8438 104.592 31.5859C104.814 31.3281 105.084 31.123 105.4 30.9707C105.729 30.8184 106.098 30.7422 106.508 30.7422C106.941 30.7422 107.322 30.8242 107.65 30.9883C107.99 31.1523 108.271 31.3633 108.494 31.6211C108.729 31.8906 108.904 32.1895 109.021 32.5176C109.15 32.8457 109.215 33.1738 109.215 33.502C109.191 33.6895 109.145 33.8828 109.074 34.082C109.004 34.2461 108.898 34.4277 108.758 34.627C108.629 34.8379 108.43 35.043 108.16 35.2422C108.43 35.3359 108.682 35.3828 108.916 35.3828C109.221 35.3828 109.543 35.2891 109.883 35.1016C110.223 34.9258 110.533 34.6445 110.814 34.2578C111.096 33.8711 111.33 33.3848 111.518 32.7988C111.705 32.2129 111.811 31.5156 111.834 30.707L111.904 25.8379C111.447 26.6113 110.979 27.2148 110.498 27.6484C110.029 28.0703 109.602 28.3809 109.215 28.5801C108.758 28.8145 108.324 28.9551 107.914 29.002C107.316 29.002 106.713 28.832 106.104 28.4922C105.494 28.1523 104.943 27.5664 104.451 26.7344C103.959 25.9023 103.555 24.7949 103.238 23.4121C102.922 22.0176 102.764 20.2715 102.764 18.1738C102.764 16.791 102.846 15.5723 103.01 14.5176C103.174 13.4512 103.396 12.5254 103.678 11.7402C103.959 10.9551 104.287 10.2988 104.662 9.77148C105.049 9.23242 105.459 8.79883 105.893 8.4707C106.338 8.14258 106.801 7.9082 107.281 7.76758C107.762 7.62695 108.236 7.55664 108.705 7.55664C109.068 7.58008 109.443 7.66211 109.83 7.80273C110.17 7.93164 110.551 8.13086 110.973 8.40039C111.395 8.66992 111.816 9.05664 112.238 9.56055L112.344 7.87305L116.475 8.3125ZM112.133 12.7773C111.863 12.3203 111.547 11.9219 111.184 11.582C110.832 11.2422 110.439 11.0723 110.006 11.0723C109.678 11.0723 109.344 11.1895 109.004 11.4238C108.676 11.6465 108.377 12.0391 108.107 12.6016C107.838 13.1523 107.615 13.8906 107.439 14.8164C107.275 15.7422 107.193 16.9082 107.193 18.3145C107.193 19.6152 107.252 20.6934 107.369 21.5488C107.486 22.4043 107.645 23.0898 107.844 23.6055C108.043 24.1094 108.271 24.4668 108.529 24.6777C108.787 24.877 109.062 24.9766 109.355 24.9766C109.742 24.9766 110.076 24.8594 110.357 24.625C110.65 24.3906 110.896 24.1094 111.096 23.7812C111.295 23.4414 111.459 23.0898 111.588 22.7266C111.729 22.3633 111.846 22.0469 111.939 21.7773C111.963 20.2422 111.986 18.7305 112.01 17.2422C112.033 15.7539 112.074 14.2656 112.133 12.7773Z" fill="black"/>
<path d="M123.629 3.33789C123.629 3.71289 123.559 4.07031 123.418 4.41016C123.277 4.73828 123.084 5.02539 122.838 5.27148C122.592 5.51758 122.299 5.7168 121.959 5.86914C121.631 6.00977 121.279 6.08008 120.904 6.08008C120.529 6.08008 120.172 6.00977 119.832 5.86914C119.504 5.7168 119.217 5.51758 118.971 5.27148C118.725 5.02539 118.525 4.73828 118.373 4.41016C118.232 4.07031 118.162 3.71289 118.162 3.33789C118.162 2.96289 118.232 2.61133 118.373 2.2832C118.525 1.94336 118.725 1.65039 118.971 1.4043C119.217 1.1582 119.504 0.964844 119.832 0.824219C120.172 0.671875 120.529 0.595703 120.904 0.595703C121.279 0.595703 121.631 0.671875 121.959 0.824219C122.299 0.964844 122.592 1.1582 122.838 1.4043C123.084 1.65039 123.277 1.94336 123.418 2.2832C123.559 2.61133 123.629 2.96289 123.629 3.33789ZM123.629 8.66406C123.535 9.58984 123.453 10.5918 123.383 11.6699C123.324 12.7363 123.271 13.832 123.225 14.957C123.189 16.082 123.16 17.2129 123.137 18.3496C123.113 19.4863 123.096 20.5703 123.084 21.6016C123.072 22.6328 123.061 23.5996 123.049 24.502C123.049 25.3926 123.049 26.1602 123.049 26.8047V28.791L119.059 28.9316C119.082 28.123 119.094 27.3379 119.094 26.5762C119.094 25.8145 119.094 25.0527 119.094 24.291C119.094 22.9668 119.082 21.6777 119.059 20.4238C119.035 19.1582 118.994 17.8926 118.936 16.627C118.889 15.3613 118.824 14.0781 118.742 12.7773C118.66 11.4766 118.561 10.1289 118.443 8.73438L123.629 8.66406Z" fill="black"/>
<path d="M132.137 1.28125C132.043 2.48828 131.967 3.67773 131.908 4.84961C131.85 6.00977 131.791 7.17578 131.732 8.34766C132.248 8.32422 132.758 8.30664 133.262 8.29492C133.766 8.27148 134.281 8.24219 134.809 8.20703L134.879 12.707C134.316 12.6133 133.76 12.5371 133.209 12.4785C132.658 12.4199 132.119 12.373 131.592 12.3379C131.557 13.334 131.533 14.3184 131.521 15.291C131.521 16.2637 131.521 17.248 131.521 18.2441C131.521 20.0254 131.539 21.7949 131.574 23.5527C131.621 25.3105 131.691 27.0801 131.785 28.8613L127.197 28.791C127.35 26.0371 127.473 23.2891 127.566 20.5469C127.672 17.793 127.742 15.0215 127.777 12.2324C127.285 12.2559 126.793 12.2852 126.301 12.3203C125.809 12.3438 125.305 12.373 124.789 12.4082L124.93 8.24219C125.41 8.27734 125.885 8.30664 126.354 8.33008C126.834 8.3418 127.309 8.35938 127.777 8.38281C127.777 7.21094 127.766 6.04492 127.742 4.88477C127.719 3.71289 127.695 2.53516 127.672 1.35156L132.137 1.28125Z" fill="black"/>
<path d="M140.926 1.24609C140.832 2.76953 140.744 4.28125 140.662 5.78125C140.58 7.28125 140.51 8.79297 140.451 10.3164C140.861 9.54297 141.318 8.94531 141.822 8.52344C142.326 8.08984 142.801 7.77344 143.246 7.57422C143.762 7.33984 144.283 7.19922 144.811 7.15234C145.654 7.15234 146.375 7.35742 146.973 7.76758C147.57 8.17773 148.062 8.76367 148.449 9.52539C148.836 10.2871 149.117 11.207 149.293 12.2852C149.469 13.3516 149.557 14.5469 149.557 15.8711C149.557 18.0859 149.48 20.2305 149.328 22.3047C149.188 24.3672 148.883 26.3828 148.414 28.3516L144.301 27.8594C144.57 26.4648 144.775 25.1641 144.916 23.957C145.068 22.75 145.18 21.6953 145.25 20.793C145.332 19.7383 145.379 18.7715 145.391 17.8926C145.391 16.7793 145.373 15.8125 145.338 14.9922C145.314 14.1602 145.232 13.4746 145.092 12.9355C144.963 12.3848 144.758 11.9746 144.477 11.7051C144.195 11.4355 143.803 11.3008 143.299 11.3008C142.912 11.3594 142.531 11.5938 142.156 12.0039C141.992 12.1797 141.828 12.4023 141.664 12.6719C141.5 12.9414 141.33 13.2754 141.154 13.6738C140.99 14.0605 140.832 14.5176 140.68 15.0449C140.527 15.5723 140.393 16.1816 140.275 16.873C140.24 18.0684 140.217 19.2578 140.205 20.4414C140.205 21.625 140.205 22.8027 140.205 23.9746C140.205 24.7129 140.205 25.457 140.205 26.207C140.205 26.957 140.217 27.7012 140.24 28.4395L136.25 28.3516C136.379 26.207 136.473 24.0625 136.531 21.918C136.602 19.7734 136.637 17.6113 136.637 15.4316C136.637 13.041 136.596 10.668 136.514 8.3125C136.432 5.94531 136.314 3.56641 136.162 1.17578L140.926 1.24609Z" fill="black"/>
<path d="M160.525 28.1758C160.549 27.707 160.572 27.2617 160.596 26.8398C160.631 26.4062 160.666 25.9902 160.701 25.5918C160.303 26.2949 159.875 26.834 159.418 27.209C158.973 27.584 158.557 27.8652 158.17 28.0527C157.713 28.2637 157.262 28.3926 156.816 28.4395C155.949 28.4395 155.193 28.2227 154.549 27.7891C153.904 27.3555 153.371 26.7402 152.949 25.9434C152.527 25.1465 152.211 24.1914 152 23.0781C151.801 21.9531 151.701 20.6992 151.701 19.3164C151.701 17.3828 151.76 15.5078 151.877 13.6914C152.006 11.875 152.211 10.0938 152.492 8.34766L156.957 8.83984C156.676 10.2344 156.459 11.4824 156.307 12.584C156.166 13.6738 156.061 14.6055 155.99 15.3789C155.908 16.2812 155.861 17.0664 155.85 17.7344C155.85 18.8477 155.885 19.8203 155.955 20.6523C156.025 21.4727 156.148 22.1582 156.324 22.709C156.512 23.248 156.764 23.6523 157.08 23.9219C157.396 24.1914 157.801 24.3262 158.293 24.3262C158.633 24.2676 158.967 24.0332 159.295 23.623C159.436 23.4473 159.582 23.2246 159.734 22.9551C159.887 22.6738 160.039 22.334 160.191 21.9355C160.344 21.5371 160.49 21.0684 160.631 20.5293C160.771 19.9902 160.906 19.3633 161.035 18.6484C161.059 17.957 161.07 17.2715 161.07 16.5918C161.07 15.9004 161.07 15.1562 161.07 14.3594C161.07 13.5156 161.07 12.5957 161.07 11.5996C161.07 10.6035 161.059 9.48438 161.035 8.24219L165.025 8.3125C164.967 9.20312 164.92 10.0293 164.885 10.791C164.85 11.541 164.82 12.25 164.797 12.918C164.785 13.5742 164.773 14.1953 164.762 14.7812C164.75 15.3672 164.744 15.9355 164.744 16.4863C164.744 17.3301 164.75 18.1562 164.762 18.9648C164.785 19.7734 164.814 20.6348 164.85 21.5488C164.885 22.4512 164.92 23.4473 164.955 24.5371C165.002 25.6152 165.049 26.8516 165.096 28.2461L160.525 28.1758Z" fill="black"/>
<path d="M172.531 1.54492C172.391 3.08008 172.268 4.60352 172.162 6.11523C172.057 7.61523 171.963 9.12695 171.881 10.6504C172.279 9.93555 172.707 9.38477 173.164 8.99805C173.621 8.59961 174.049 8.30664 174.447 8.11914C174.916 7.9082 175.373 7.7793 175.818 7.73242C176.662 7.73242 177.412 7.9082 178.068 8.25977C178.725 8.61133 179.275 9.21484 179.721 10.0703C180.178 10.9141 180.523 12.0449 180.758 13.4629C180.992 14.8691 181.109 16.6328 181.109 18.7539C181.109 20.7109 180.922 22.3574 180.547 23.6934C180.184 25.0176 179.709 26.0898 179.123 26.9102C178.549 27.7188 177.904 28.2988 177.189 28.6504C176.486 29.0137 175.789 29.1953 175.098 29.1953C175.027 29.1953 174.869 29.1777 174.623 29.1426C174.389 29.1191 174.102 29.0312 173.762 28.8789C173.422 28.7383 173.059 28.5215 172.672 28.2285C172.285 27.9355 171.916 27.5254 171.564 26.998V28.9316L167.609 28.8613C167.715 27.1504 167.785 25.4453 167.82 23.7461C167.867 22.0469 167.891 20.3477 167.891 18.6484C167.891 15.7891 167.844 12.9531 167.75 10.1406C167.656 7.31641 167.545 4.47461 167.416 1.61523L172.531 1.54492ZM173.797 25.9434C173.855 25.9668 173.914 25.9785 173.973 25.9785C174.043 25.9785 174.113 25.9785 174.184 25.9785C174.5 25.9785 174.828 25.873 175.168 25.6621C175.52 25.4395 175.836 25.0527 176.117 24.502C176.398 23.9512 176.633 23.207 176.82 22.2695C177.008 21.3203 177.102 20.1133 177.102 18.6484C177.102 17.3359 177.037 16.2461 176.908 15.3789C176.791 14.5 176.627 13.7969 176.416 13.2695C176.205 12.7422 175.959 12.373 175.678 12.1621C175.396 11.9395 175.104 11.8281 174.799 11.8281C174.482 11.8281 174.189 11.916 173.92 12.0918C173.662 12.2559 173.428 12.4785 173.217 12.7598C173.006 13.0293 172.812 13.3398 172.637 13.6914C172.473 14.043 172.326 14.3945 172.197 14.7461C172.068 15.0859 171.957 15.4199 171.863 15.748C171.781 16.0645 171.717 16.334 171.67 16.5566C171.6 18.8652 171.564 21.1562 171.564 23.4297C171.834 23.9922 172.104 24.4375 172.373 24.7656C172.643 25.0938 172.883 25.3457 173.094 25.5215C173.34 25.7324 173.574 25.873 173.797 25.9434Z" fill="black"/>
<path d="M187.596 26.3477C187.596 26.6641 187.531 26.9629 187.402 27.2441C187.285 27.5137 187.121 27.7539 186.91 27.9648C186.711 28.1758 186.471 28.3398 186.189 28.457C185.908 28.5859 185.609 28.6504 185.293 28.6504C184.977 28.6504 184.672 28.5859 184.379 28.457C184.098 28.3398 183.852 28.1758 183.641 27.9648C183.43 27.7539 183.26 27.5137 183.131 27.2441C183.014 26.9629 182.955 26.6641 182.955 26.3477C182.955 26.0195 183.014 25.7148 183.131 25.4336C183.26 25.1523 183.43 24.9062 183.641 24.6953C183.852 24.4844 184.098 24.3203 184.379 24.2031C184.672 24.0742 184.977 24.0098 185.293 24.0098C185.609 24.0098 185.908 24.0742 186.189 24.2031C186.471 24.3203 186.711 24.4844 186.91 24.6953C187.121 24.9062 187.285 25.1523 187.402 25.4336C187.531 25.7148 187.596 26.0195 187.596 26.3477Z" fill="black"/>
<path d="M202.713 13.0586C202.713 13.8672 202.602 14.5117 202.379 14.9922C202.168 15.4609 201.91 15.8184 201.605 16.0645C201.312 16.2988 201.008 16.4512 200.691 16.5215C200.387 16.5918 200.135 16.627 199.936 16.627C199.736 16.627 199.496 16.5977 199.215 16.5391C198.934 16.4688 198.658 16.3398 198.389 16.1523C198.131 15.9531 197.908 15.6777 197.721 15.3262C197.545 14.9629 197.457 14.4941 197.457 13.9199C197.469 13.6035 197.527 13.293 197.633 12.9883C197.727 12.7305 197.867 12.4668 198.055 12.1973C198.242 11.9277 198.512 11.6992 198.863 11.5117C198.664 11.0664 198.441 10.7266 198.195 10.4922C197.961 10.2578 197.732 10.082 197.51 9.96484C197.252 9.83594 196.994 9.75391 196.736 9.71875C196.303 9.71875 195.91 9.91797 195.559 10.3164C195.207 10.7148 194.908 11.2773 194.662 12.0039C194.416 12.7188 194.223 13.5801 194.082 14.5879C193.953 15.5957 193.889 16.709 193.889 17.9277C193.889 19.1348 193.93 20.2656 194.012 21.3203C194.105 22.3633 194.252 23.2773 194.451 24.0625C194.65 24.8359 194.92 25.4453 195.26 25.8906C195.6 26.3359 196.021 26.5586 196.525 26.5586C196.795 26.5469 197.064 26.4824 197.334 26.3652C197.568 26.2715 197.814 26.1191 198.072 25.9082C198.342 25.6855 198.582 25.375 198.793 24.9766C198.383 24.7773 198.066 24.5371 197.844 24.2559C197.633 23.9629 197.48 23.6816 197.387 23.4121C197.27 23.0957 197.205 22.7676 197.193 22.4277C197.193 21.8652 197.305 21.4082 197.527 21.0566C197.75 20.7051 198.014 20.4297 198.318 20.2305C198.623 20.0195 198.934 19.8789 199.25 19.8086C199.566 19.7266 199.818 19.6855 200.006 19.6855C200.205 19.6855 200.451 19.7266 200.744 19.8086C201.037 19.8906 201.318 20.0488 201.588 20.2832C201.857 20.5176 202.086 20.8516 202.273 21.2852C202.473 21.707 202.572 22.2637 202.572 22.9551C202.572 23.6465 202.402 24.3613 202.062 25.0996C201.734 25.8379 201.283 26.5117 200.709 27.1211C200.146 27.7305 199.49 28.2285 198.74 28.6152C198.002 29.002 197.223 29.1953 196.402 29.1953C195.852 29.1953 195.295 29.1191 194.732 28.9668C194.17 28.8145 193.631 28.5625 193.115 28.2109C192.6 27.8594 192.113 27.3965 191.656 26.8223C191.199 26.248 190.801 25.5449 190.461 24.7129C190.133 23.8809 189.869 22.9082 189.67 21.7949C189.482 20.6699 189.389 19.3809 189.389 17.9277C189.389 16.4746 189.494 15.2031 189.705 14.1133C189.916 13.0117 190.203 12.0684 190.566 11.2832C190.941 10.498 191.369 9.84766 191.85 9.33203C192.33 8.81641 192.84 8.40625 193.379 8.10156C193.93 7.79688 194.492 7.58594 195.066 7.46875C195.641 7.35156 196.197 7.29297 196.736 7.29297C197.533 7.29297 198.295 7.44531 199.021 7.75C199.748 8.04297 200.381 8.45312 200.92 8.98047C201.471 9.49609 201.904 10.1055 202.221 10.8086C202.549 11.5117 202.713 12.2617 202.713 13.0586Z" fill="black"/>
<path d="M210.781 29.002C209.621 29.002 208.619 28.75 207.775 28.2461C206.943 27.7422 206.252 27.0391 205.701 26.1367C205.162 25.2344 204.764 24.1621 204.506 22.9199C204.248 21.6777 204.119 20.3242 204.119 18.8594C204.119 17.1602 204.271 15.6016 204.576 14.1836C204.881 12.7656 205.326 11.5469 205.912 10.5273C206.51 9.50781 207.242 8.7168 208.109 8.1543C208.988 7.58008 209.996 7.29297 211.133 7.29297C212.281 7.29297 213.271 7.5332 214.104 8.01367C214.936 8.49414 215.621 9.16797 216.16 10.0352C216.711 10.9023 217.115 11.9395 217.373 13.1465C217.631 14.3535 217.76 15.6836 217.76 17.1367C217.76 17.8867 217.713 18.7012 217.619 19.5801C217.537 20.459 217.391 21.3379 217.18 22.2168C216.98 23.0957 216.711 23.9453 216.371 24.7656C216.031 25.5742 215.604 26.2949 215.088 26.9277C214.572 27.5605 213.957 28.0645 213.242 28.4395C212.539 28.8145 211.719 29.002 210.781 29.002ZM213.523 15.8359C213.523 14.9453 213.482 14.1484 213.4 13.4453C213.318 12.7305 213.184 12.127 212.996 11.6348C212.82 11.1426 212.592 10.7676 212.311 10.5098C212.041 10.2402 211.713 10.1055 211.326 10.1055C210.904 10.1055 210.512 10.3281 210.148 10.7734C209.785 11.2188 209.463 11.8633 209.182 12.707C208.912 13.5508 208.695 14.582 208.531 15.8008C208.379 17.0078 208.303 18.373 208.303 19.8965C208.303 20.8809 208.35 21.7656 208.443 22.5508C208.537 23.3242 208.678 23.9863 208.865 24.5371C209.053 25.0762 209.281 25.4922 209.551 25.7852C209.832 26.0664 210.16 26.207 210.535 26.207C210.91 26.207 211.244 26.0547 211.537 25.75C211.83 25.4336 212.082 25.0117 212.293 24.4844C212.516 23.957 212.703 23.3477 212.855 22.6562C213.02 21.9531 213.148 21.2207 213.242 20.459C213.336 19.6855 213.406 18.9004 213.453 18.1035C213.5 17.3066 213.523 16.5508 213.523 15.8359Z" fill="black"/>
<path d="M231.189 18.8242C231.189 19.5273 231.184 20.1426 231.172 20.6699C231.16 21.1855 231.143 21.6602 231.119 22.0938C231.107 22.5156 231.084 22.9199 231.049 23.3066C231.025 23.6816 230.996 24.0859 230.961 24.5195C230.926 24.9414 230.885 25.4219 230.838 25.9609C230.791 26.4883 230.738 27.1094 230.68 27.8242L226.725 27.8594C226.889 25.9727 227.006 24.1621 227.076 22.4277C227.158 20.6816 227.199 18.9531 227.199 17.2422C227.199 15.6133 227.047 14.4238 226.742 13.6738C226.449 12.9238 225.998 12.5488 225.389 12.5488C225.154 12.6191 224.926 12.7773 224.703 13.0234C224.504 13.2344 224.299 13.5566 224.088 13.9902C223.889 14.4238 223.713 15.0273 223.561 15.8008C223.537 16.375 223.525 16.9434 223.525 17.5059C223.525 18.0566 223.525 18.6016 223.525 19.1406C223.525 19.7734 223.525 20.418 223.525 21.0742C223.537 21.7305 223.543 22.4336 223.543 23.1836C223.555 23.9336 223.566 24.7422 223.578 25.6094C223.59 26.4648 223.607 27.4082 223.631 28.4395L219.623 28.3516C219.705 27.0039 219.775 25.8027 219.834 24.748C219.893 23.6934 219.939 22.7207 219.975 21.8301C220.021 20.9395 220.051 20.0957 220.062 19.2988C220.086 18.502 220.098 17.6816 220.098 16.8379C220.098 16.2754 220.092 15.7012 220.08 15.1152C220.08 14.5176 220.068 13.8789 220.045 13.1992C220.033 12.5195 220.016 11.793 219.992 11.0195C219.969 10.2344 219.945 9.37891 219.922 8.45312L223.912 8.52344L223.807 10.1758C224.146 9.50781 224.504 8.99219 224.879 8.62891C225.254 8.26562 225.605 8.00195 225.934 7.83789C226.262 7.67383 226.537 7.58008 226.76 7.55664C226.994 7.5332 227.141 7.52148 227.199 7.52148C227.551 7.52148 227.885 7.56836 228.201 7.66211C228.529 7.75586 228.834 7.93164 229.115 8.18945C229.408 8.44727 229.672 8.80469 229.906 9.26172C230.152 9.71875 230.363 10.3105 230.539 11.0371C230.855 10.1465 231.248 9.46094 231.717 8.98047C232.186 8.5 232.643 8.1543 233.088 7.94336C233.545 7.7207 233.943 7.59766 234.283 7.57422C234.635 7.53906 234.84 7.52148 234.898 7.52148C235.648 7.52148 236.281 7.75 236.797 8.20703C237.312 8.66406 237.723 9.36133 238.027 10.2988C238.332 11.2363 238.549 12.4141 238.678 13.832C238.818 15.25 238.889 16.9141 238.889 18.8242C238.889 19.457 238.859 20.1895 238.801 21.0215C238.742 21.8535 238.666 22.7148 238.572 23.6055C238.479 24.4844 238.379 25.3574 238.273 26.2246C238.168 27.0918 238.074 27.8652 237.992 28.5449L234.037 28.4043C234.236 27.1504 234.389 25.9609 234.494 24.8359C234.611 23.6992 234.699 22.6914 234.758 21.8125C234.816 20.793 234.852 19.8438 234.863 18.9648C234.863 17.8516 234.834 16.8906 234.775 16.082C234.729 15.2734 234.635 14.6113 234.494 14.0957C234.354 13.5684 234.16 13.1816 233.914 12.9355C233.668 12.6777 233.357 12.5488 232.982 12.5488C232.736 12.6191 232.502 12.7539 232.279 12.9531C232.08 13.1172 231.869 13.3691 231.646 13.709C231.436 14.0371 231.248 14.4824 231.084 15.0449C231.154 16.123 231.189 17.3828 231.189 18.8242Z" fill="black"/>
<path d="M255.254 2.72266C254.891 3.47266 254.457 4.42188 253.953 5.57031C253.461 6.71875 252.922 8.00195 252.336 9.41992C251.762 10.8262 251.164 12.332 250.543 13.9375C249.922 15.543 249.312 17.166 248.715 18.8066C248.129 20.4473 247.561 22.0762 247.01 23.6934C246.471 25.2988 245.99 26.8164 245.568 28.2461C245.064 28.1758 244.549 28.1113 244.021 28.0527C243.576 28.0059 243.084 27.9648 242.545 27.9297C242.006 27.8828 241.49 27.8594 240.998 27.8594H240.576C241.232 26.6523 241.889 25.3281 242.545 23.8867C243.213 22.4453 243.863 20.957 244.496 19.4219C245.129 17.8867 245.738 16.334 246.324 14.7637C246.91 13.1934 247.455 11.6641 247.959 10.1758C248.463 8.6875 248.914 7.28125 249.312 5.95703C249.723 4.62109 250.062 3.42578 250.332 2.37109L255.254 2.72266Z" fill="black"/>
<path d="M268.754 12.1621C268.754 12.7012 268.654 13.1582 268.455 13.5332C268.256 13.9082 268.016 14.2129 267.734 14.4473C267.453 14.6816 267.16 14.8516 266.855 14.957C266.551 15.0625 266.293 15.1152 266.082 15.1152C265.871 15.1152 265.619 15.0801 265.326 15.0098C265.033 14.9277 264.752 14.7871 264.482 14.5879C264.225 14.3887 264.002 14.125 263.814 13.7969C263.627 13.457 263.533 13.0293 263.533 12.5137C263.545 12.2324 263.598 11.957 263.691 11.6875C263.773 11.4531 263.896 11.2129 264.061 10.9668C264.236 10.709 264.482 10.4805 264.799 10.2812C264.588 9.97656 264.377 9.74219 264.166 9.57812C263.955 9.41406 263.768 9.29102 263.604 9.20898C263.404 9.11523 263.223 9.05664 263.059 9.0332C262.695 9.0332 262.367 9.10938 262.074 9.26172C261.781 9.40234 261.529 9.5957 261.318 9.8418C261.119 10.0762 260.961 10.3516 260.844 10.668C260.738 10.9844 260.686 11.3125 260.686 11.6523C260.686 12.0859 260.715 12.4785 260.773 12.8301C260.832 13.1816 260.967 13.5391 261.178 13.9023C261.389 14.2656 261.705 14.6582 262.127 15.0801C262.549 15.502 263.123 15.9941 263.85 16.5566C264.576 17.1191 265.209 17.6699 265.748 18.209C266.287 18.7363 266.732 19.2578 267.084 19.7734C267.436 20.2891 267.699 20.8105 267.875 21.3379C268.051 21.8535 268.139 22.3926 268.139 22.9551C268.139 23.3301 268.098 23.7402 268.016 24.1855C267.945 24.6191 267.816 25.0645 267.629 25.5215C267.453 25.9668 267.213 26.4004 266.908 26.8223C266.615 27.2324 266.246 27.6016 265.801 27.9297C265.367 28.2578 264.852 28.5156 264.254 28.7031C263.668 28.9023 262.994 29.002 262.232 29.002C261.084 29.002 260.105 28.832 259.297 28.4922C258.488 28.1523 257.82 27.7422 257.293 27.2617C256.777 26.7695 256.396 26.2539 256.15 25.7148C255.916 25.1758 255.799 24.7012 255.799 24.291C255.799 23.8574 255.852 23.4531 255.957 23.0781C256.062 22.7031 256.227 22.375 256.449 22.0938C256.684 21.8125 256.977 21.5957 257.328 21.4434C257.691 21.2793 258.125 21.1973 258.629 21.1973C259.051 21.1973 259.432 21.2617 259.771 21.3906C260.123 21.5195 260.422 21.7129 260.668 21.9707C260.926 22.2168 261.125 22.5215 261.266 22.8848C261.406 23.248 261.477 23.6582 261.477 24.1152C261.465 24.3145 261.424 24.5195 261.354 24.7305C261.295 24.9062 261.195 25.0996 261.055 25.3105C260.914 25.5215 260.721 25.7207 260.475 25.9082C260.639 26.0371 260.797 26.1367 260.949 26.207C261.113 26.2656 261.26 26.3066 261.389 26.3301C261.529 26.3652 261.67 26.3828 261.811 26.3828C261.963 26.3828 262.139 26.3418 262.338 26.2598C262.549 26.166 262.748 26.0254 262.936 25.8379C263.123 25.6504 263.281 25.4219 263.41 25.1523C263.539 24.8828 263.604 24.5605 263.604 24.1855C263.604 23.8105 263.568 23.4707 263.498 23.166C263.439 22.8496 263.305 22.5273 263.094 22.1992C262.895 21.8594 262.602 21.4902 262.215 21.0918C261.828 20.6934 261.318 20.2129 260.686 19.6504C260.053 19.0879 259.49 18.543 258.998 18.0156C258.506 17.4766 258.09 16.9199 257.75 16.3457C257.422 15.7715 257.17 15.168 256.994 14.5352C256.818 13.9023 256.73 13.2051 256.73 12.4434C256.73 11.6934 256.877 10.9668 257.17 10.2637C257.475 9.56055 257.902 8.93945 258.453 8.40039C259.004 7.84961 259.672 7.41602 260.457 7.09961C261.242 6.77148 262.121 6.60742 263.094 6.60742C264.078 6.60742 264.928 6.75977 265.643 7.06445C266.357 7.36914 266.943 7.7793 267.4 8.29492C267.857 8.79883 268.197 9.38477 268.42 10.0527C268.643 10.7207 268.754 11.4238 268.754 12.1621Z" fill="black"/>
<path d="M275.469 3.33789C275.469 3.71289 275.398 4.07031 275.258 4.41016C275.117 4.73828 274.924 5.02539 274.678 5.27148C274.432 5.51758 274.139 5.7168 273.799 5.86914C273.471 6.00977 273.119 6.08008 272.744 6.08008C272.369 6.08008 272.012 6.00977 271.672 5.86914C271.344 5.7168 271.057 5.51758 270.811 5.27148C270.564 5.02539 270.365 4.73828 270.213 4.41016C270.072 4.07031 270.002 3.71289 270.002 3.33789C270.002 2.96289 270.072 2.61133 270.213 2.2832C270.365 1.94336 270.564 1.65039 270.811 1.4043C271.057 1.1582 271.344 0.964844 271.672 0.824219C272.012 0.671875 272.369 0.595703 272.744 0.595703C273.119 0.595703 273.471 0.671875 273.799 0.824219C274.139 0.964844 274.432 1.1582 274.678 1.4043C274.924 1.65039 275.117 1.94336 275.258 2.2832C275.398 2.61133 275.469 2.96289 275.469 3.33789ZM275.469 8.66406C275.375 9.58984 275.293 10.5918 275.223 11.6699C275.164 12.7363 275.111 13.832 275.064 14.957C275.029 16.082 275 17.2129 274.977 18.3496C274.953 19.4863 274.936 20.5703 274.924 21.6016C274.912 22.6328 274.9 23.5996 274.889 24.502C274.889 25.3926 274.889 26.1602 274.889 26.8047V28.791L270.898 28.9316C270.922 28.123 270.934 27.3379 270.934 26.5762C270.934 25.8145 270.934 25.0527 270.934 24.291C270.934 22.9668 270.922 21.6777 270.898 20.4238C270.875 19.1582 270.834 17.8926 270.775 16.627C270.729 15.3613 270.664 14.0781 270.582 12.7773C270.5 11.4766 270.4 10.1289 270.283 8.73438L275.469 8.66406Z" fill="black"/>
<path d="M282.395 8.83984C282.301 10.4453 282.225 11.9922 282.166 13.4805C282.107 14.957 282.061 16.2754 282.025 17.4355C281.979 18.7832 281.943 20.0488 281.92 21.2324C281.873 22.6152 281.85 23.9863 281.85 25.3457C281.861 26.7051 281.826 27.9941 281.744 29.2129C281.662 30.4434 281.504 31.5801 281.27 32.623C281.047 33.6777 280.672 34.5859 280.145 35.3477C279.617 36.1094 278.914 36.707 278.035 37.1406C277.156 37.5742 276.031 37.791 274.66 37.791C273.652 37.791 272.838 37.6445 272.217 37.3516C271.596 37.0703 271.115 36.7188 270.775 36.2969C270.436 35.875 270.213 35.4238 270.107 34.9434C269.99 34.4629 269.932 34.0352 269.932 33.6602C269.932 33.2617 269.99 32.8809 270.107 32.5176C270.225 32.166 270.4 31.8555 270.635 31.5859C270.857 31.3281 271.139 31.123 271.479 30.9707C271.807 30.8184 272.182 30.7422 272.604 30.7422C273.037 30.7422 273.424 30.8242 273.764 30.9883C274.092 31.1523 274.373 31.3633 274.607 31.6211C274.83 31.8906 275 32.1895 275.117 32.5176C275.234 32.8457 275.293 33.1738 275.293 33.502C275.281 33.6895 275.24 33.8828 275.17 34.082C275.111 34.2461 275.012 34.4277 274.871 34.627C274.719 34.8379 274.514 35.043 274.256 35.2422C274.396 35.3008 274.537 35.3359 274.678 35.3477C274.807 35.3711 274.918 35.3828 275.012 35.3828C275.305 35.3828 275.621 35.2891 275.961 35.1016C276.301 34.9258 276.611 34.6445 276.893 34.2578C277.174 33.8828 277.408 33.4023 277.596 32.8164C277.795 32.2305 277.906 31.5273 277.93 30.707C277.953 29.793 277.971 28.6621 277.982 27.3145C277.994 25.9668 278 24.5137 278 22.9551C278 21.6074 277.988 20.2363 277.965 18.8418C277.953 17.4355 277.93 16.0938 277.895 14.8164C277.859 13.5391 277.812 12.3789 277.754 11.3359C277.695 10.2812 277.619 9.42578 277.525 8.76953L282.395 8.83984ZM282.395 2.75781C282.395 3.13281 282.318 3.49023 282.166 3.83008C282.025 4.1582 281.832 4.44531 281.586 4.69141C281.34 4.9375 281.047 5.13672 280.707 5.28906C280.379 5.42969 280.027 5.5 279.652 5.5C279.277 5.5 278.92 5.42969 278.58 5.28906C278.252 5.13672 277.965 4.9375 277.719 4.69141C277.473 4.44531 277.279 4.1582 277.139 3.83008C276.998 3.49023 276.928 3.13281 276.928 2.75781C276.928 2.38281 276.998 2.03125 277.139 1.70312C277.279 1.36328 277.473 1.07031 277.719 0.824219C277.965 0.578125 278.252 0.384766 278.58 0.244141C278.92 0.103516 279.277 0.0332031 279.652 0.0332031C280.027 0.0332031 280.379 0.103516 280.707 0.244141C281.047 0.384766 281.34 0.578125 281.586 0.824219C281.832 1.07031 282.025 1.36328 282.166 1.70312C282.318 2.03125 282.395 2.38281 282.395 2.75781Z" fill="black"/>
<path d="M293.029 28.7207C292.959 28.3574 292.895 27.9883 292.836 27.6133C292.777 27.2383 292.73 26.8516 292.695 26.4531C292.156 27.25 291.512 27.8594 290.762 28.2812C290.012 28.7148 289.191 28.9316 288.301 28.9316C287.844 28.9316 287.375 28.8555 286.895 28.7031C286.414 28.5625 285.975 28.3105 285.576 27.9473C285.189 27.584 284.867 27.0918 284.609 26.4707C284.363 25.8379 284.24 25.041 284.24 24.0801C284.24 23.2832 284.357 22.5918 284.592 22.0059C284.826 21.4082 285.131 20.8867 285.506 20.4414C285.881 19.9961 286.303 19.6094 286.771 19.2812C287.24 18.9531 287.703 18.6602 288.16 18.4023C288.629 18.1445 289.074 17.9043 289.496 17.6816C289.918 17.459 290.264 17.2363 290.533 17.0137C291.049 16.6035 291.494 16.1699 291.869 15.7129C292.256 15.2441 292.566 14.7578 292.801 14.2539C292.754 13.4453 292.666 12.7832 292.537 12.2676C292.42 11.7402 292.262 11.3242 292.062 11.0195C291.863 10.7031 291.617 10.4863 291.324 10.3691C291.043 10.2402 290.721 10.1758 290.357 10.1758C289.818 10.1758 289.361 10.293 288.986 10.5273C288.623 10.7617 288.324 11.043 288.09 11.3711C288.383 11.5586 288.605 11.7578 288.758 11.9688C288.922 12.1797 289.045 12.3848 289.127 12.584C289.221 12.8066 289.273 13.0352 289.285 13.2695C289.285 14.0664 289.057 14.6758 288.6 15.0977C288.154 15.5195 287.58 15.7305 286.877 15.7305C286.514 15.7305 286.18 15.6484 285.875 15.4844C285.57 15.3086 285.301 15.0684 285.066 14.7637C284.844 14.459 284.668 14.0957 284.539 13.6738C284.41 13.252 284.346 12.7949 284.346 12.3027C284.346 11.8105 284.457 11.2891 284.68 10.7383C284.902 10.1875 285.26 9.67773 285.752 9.20898C286.244 8.72852 286.877 8.33594 287.65 8.03125C288.424 7.71484 289.361 7.55664 290.463 7.55664C291.564 7.55664 292.508 7.77344 293.293 8.20703C294.078 8.62891 294.723 9.19727 295.227 9.91211C295.73 10.6152 296.094 11.4297 296.316 12.3555C296.551 13.2812 296.668 14.2363 296.668 15.2207C296.668 15.959 296.662 16.7617 296.65 17.6289C296.639 18.4961 296.633 19.3867 296.633 20.3008C296.633 21.0625 296.639 21.8242 296.65 22.5859C296.662 23.3477 296.686 24.0859 296.721 24.8008C296.756 25.5039 296.803 26.1719 296.861 26.8047C296.92 27.4258 296.996 27.9824 297.09 28.4746L293.029 28.7207ZM292.766 18.4199C292.355 18.9121 291.916 19.334 291.447 19.6855C291.096 19.9316 290.715 20.207 290.305 20.5117C289.906 20.8164 289.531 21.1387 289.18 21.4785C288.84 21.8184 288.553 22.1758 288.318 22.5508C288.096 22.9141 287.984 23.2891 287.984 23.6758C287.984 24.2031 288.113 24.6543 288.371 25.0293C288.629 25.4043 288.992 25.5918 289.461 25.5918C289.895 25.5918 290.281 25.4746 290.621 25.2402C290.961 25.0059 291.26 24.7188 291.518 24.3789C291.787 24.0273 292.01 23.6523 292.186 23.2539C292.373 22.8555 292.52 22.4922 292.625 22.1641L292.766 18.4199Z" fill="black"/>
<path d="M304.156 1.54492C304.016 3.08008 303.893 4.60352 303.787 6.11523C303.682 7.61523 303.588 9.12695 303.506 10.6504C303.904 9.93555 304.332 9.38477 304.789 8.99805C305.246 8.59961 305.674 8.30664 306.072 8.11914C306.541 7.9082 306.998 7.7793 307.443 7.73242C308.287 7.73242 309.037 7.9082 309.693 8.25977C310.35 8.61133 310.9 9.21484 311.346 10.0703C311.803 10.9141 312.148 12.0449 312.383 13.4629C312.617 14.8691 312.734 16.6328 312.734 18.7539C312.734 20.7109 312.547 22.3574 312.172 23.6934C311.809 25.0176 311.334 26.0898 310.748 26.9102C310.174 27.7188 309.529 28.2988 308.814 28.6504C308.111 29.0137 307.414 29.1953 306.723 29.1953C306.652 29.1953 306.494 29.1777 306.248 29.1426C306.014 29.1191 305.727 29.0312 305.387 28.8789C305.047 28.7383 304.684 28.5215 304.297 28.2285C303.91 27.9355 303.541 27.5254 303.189 26.998V28.9316L299.234 28.8613C299.34 27.1504 299.41 25.4453 299.445 23.7461C299.492 22.0469 299.516 20.3477 299.516 18.6484C299.516 15.7891 299.469 12.9531 299.375 10.1406C299.281 7.31641 299.17 4.47461 299.041 1.61523L304.156 1.54492ZM305.422 25.9434C305.48 25.9668 305.539 25.9785 305.598 25.9785C305.668 25.9785 305.738 25.9785 305.809 25.9785C306.125 25.9785 306.453 25.873 306.793 25.6621C307.145 25.4395 307.461 25.0527 307.742 24.502C308.023 23.9512 308.258 23.207 308.445 22.2695C308.633 21.3203 308.727 20.1133 308.727 18.6484C308.727 17.3359 308.662 16.2461 308.533 15.3789C308.416 14.5 308.252 13.7969 308.041 13.2695C307.83 12.7422 307.584 12.373 307.303 12.1621C307.021 11.9395 306.729 11.8281 306.424 11.8281C306.107 11.8281 305.814 11.916 305.545 12.0918C305.287 12.2559 305.053 12.4785 304.842 12.7598C304.631 13.0293 304.438 13.3398 304.262 13.6914C304.098 14.043 303.951 14.3945 303.822 14.7461C303.693 15.0859 303.582 15.4199 303.488 15.748C303.406 16.0645 303.342 16.334 303.295 16.5566C303.225 18.8652 303.189 21.1562 303.189 23.4297C303.459 23.9922 303.729 24.4375 303.998 24.7656C304.268 25.0938 304.508 25.3457 304.719 25.5215C304.965 25.7324 305.199 25.873 305.422 25.9434Z" fill="black"/>
</svg>
